<?xml version="1.0" encoding="utf-8"?>
<!-- Generator: Adobe Illustrator 27.5.0, SVG Export Plug-In . SVG Version: 6.00 Build 0)  -->
<svg version="1.1" xmlns="http://www.w3.org/2000/svg" xmlns:xlink="http://www.w3.org/1999/xlink" x="0px" y="0px"
	 viewBox="0 0 499.999 500" style="enable-background:new 0 0 499.999 500;" xml:space="preserve">
<g id="BACKGROUND">
</g>
<g id="OBJECTS">
	<path style="fill:#F5DFDC;" d="M139.36,185.722c0,0,86,6.667,122-42s80-151.333,150-78s34.666,104.666-4.667,122
		s-7.332,23.334,25.334,36c32.666,12.667,44.666,91.334-1.334,106.667c-46,15.333-335.186,103.655-376.667,52.667
		c-32-39.334,49.333-29.334,38-70.667s-100-44.667-50.666-100.667C90.693,155.722,139.36,185.722,139.36,185.722z"/>
	<path style="fill:#F5DFDC;" d="M435.36,436.221c0,9.482-71.336,17.167-159.334,17.167c-87.997,0-159.333-7.686-159.333-17.167
		c0-9.48,71.336-17.166,159.333-17.166C364.024,419.055,435.36,426.741,435.36,436.221z"/>
	<g>
		<g>
			<polygon style="fill:#5FAB4E;" points="338.03,396.385 154.69,436.385 75.36,108.385 83.18,106.675 285.36,62.385 
				336.27,385.195 			"/>
			<polygon style="fill:#FFFFFF;" points="99.604,123.552 268.91,86.466 315.332,380.87 169.535,412.679 			"/>
			<polygon style="fill:#469646;" points="338.03,396.385 154.69,436.385 75.36,108.385 83.18,106.675 161.36,426.385 
				336.27,385.195 			"/>
		</g>
		<g>
			<polygon style="fill:none;stroke:#925656;stroke-width:2;stroke-miterlimit:10;" points="127.36,151.055 143.36,147.555 
				150.36,178.555 131.36,178.555 			"/>
			<polygon style="fill:none;stroke:#925656;stroke-width:2;stroke-miterlimit:10;" points="138.36,225.555 156.86,219.055 
				162.36,247.055 146.36,249.055 			"/>
			<polygon style="fill:none;stroke:#925656;stroke-width:2;stroke-miterlimit:10;" points="159.86,323.055 154.36,292.555 
				173.36,292.055 177.36,320.055 			"/>
			<polygon style="fill:none;stroke:#925656;stroke-width:2;stroke-miterlimit:10;" points="172.86,366.055 190.86,359.555 
				197.86,384.555 177.36,392.555 			"/>
		</g>
		<g>
			
				<line style="fill:none;stroke:#925656;stroke-width:2;stroke-miterlimit:10;" x1="157.36" y1="150.055" x2="259.36" y2="128.055"/>
			
				<line style="fill:none;stroke:#925656;stroke-width:2;stroke-miterlimit:10;" x1="165.86" y1="166.055" x2="265.36" y2="144.055"/>
			
				<line style="fill:none;stroke:#925656;stroke-width:2;stroke-miterlimit:10;" x1="160.86" y1="181.055" x2="267.36" y2="156.055"/>
			
				<line style="fill:none;stroke:#925656;stroke-width:2;stroke-miterlimit:10;" x1="166.86" y1="222.055" x2="278.36" y2="197.055"/>
			
				<line style="fill:none;stroke:#925656;stroke-width:2;stroke-miterlimit:10;" x1="166.86" y1="234.555" x2="271.86" y2="212.055"/>
			
				<line style="fill:none;stroke:#925656;stroke-width:2;stroke-miterlimit:10;" x1="174.36" y1="249.555" x2="275.36" y2="229.055"/>
			
				<line style="fill:none;stroke:#925656;stroke-width:2;stroke-miterlimit:10;" x1="187.36" y1="290.055" x2="282.86" y2="268.055"/>
			
				<line style="fill:none;stroke:#925656;stroke-width:2;stroke-miterlimit:10;" x1="185.36" y1="303.555" x2="288.86" y2="281.055"/>
			
				<line style="fill:none;stroke:#925656;stroke-width:2;stroke-miterlimit:10;" x1="192.36" y1="316.055" x2="298.86" y2="292.055"/>
			
				<line style="fill:none;stroke:#925656;stroke-width:2;stroke-miterlimit:10;" x1="200.86" y1="361.055" x2="297.86" y2="339.055"/>
			
				<line style="fill:none;stroke:#925656;stroke-width:2;stroke-miterlimit:10;" x1="203.36" y1="373.555" x2="295.36" y2="354.555"/>
			
				<line style="fill:none;stroke:#925656;stroke-width:2;stroke-miterlimit:10;" x1="207.86" y1="386.055" x2="300.36" y2="368.055"/>
		</g>
		<g>
			<path style="fill:#BD212D;" d="M132.86,161.055l4.5-4.5l6.5,8.5c0,0,10-46.5,23-52.5l6.5,3c0,0-22.5,22.5-27,53.5L132.86,161.055
				z"/>
			<path style="fill:#BD212D;" d="M141.86,235.555l4.5-4.5l6.5,8.5c0,0,10-46.5,23-52.5l6.5,3c0,0-22.5,22.5-27,53.5L141.86,235.555
				z"/>
			<path style="fill:#BD212D;" d="M156.86,305.555l4.5-4.5l6.5,8.5c0,0,10-46.5,23-52.5l6.5,3c0,0-22.5,22.5-27,53.5L156.86,305.555
				z"/>
			<path style="fill:#BD212D;" d="M174.86,373.555l4.5-4.5l6.5,8.5c0,0,10-46.5,23-52.5l6.5,3c0,0-22.5,22.5-27,53.5L174.86,373.555
				z"/>
		</g>
		<g>
			<path style="fill:#D05A4A;" d="M207.73,57.885l-10.37-20.33l-39.71,7.11l-7.79,1.39l0.91,26.42l0.09,2.58l8.84-1.78l50.66-10.22
				L207.73,57.885z M175.61,59.555c-3.18,0-5.75-2.57-5.75-5.75c0-3.18,2.57-5.75,5.75-5.75s5.75,2.57,5.75,5.75
				C181.36,56.985,178.79,59.555,175.61,59.555z"/>
			<polygon style="fill:#9B2332;" points="159.7,73.275 150.86,75.055 150.77,72.475 149.86,46.055 157.65,44.665 159.48,70.245 			
				"/>
			<polygon style="fill:#9B2332;" points="245.36,86.555 120.86,111.555 113.36,82.055 121.69,79.925 140.49,75.105 150.77,72.475 
				159.48,70.245 207.73,57.885 236.36,50.555 243.68,79.845 			"/>
			<polygon style="fill:#891F32;" points="245.36,86.555 120.86,111.555 113.36,82.055 121.69,79.925 129.36,104.555 243.68,79.845 
							"/>
		</g>
	</g>
	<g>
		<path style="fill:#6F4A4A;" d="M295.36,322.722c0,0-10.001,23.333-0.334,33.333c0,0-6.333,16-18.333,27.667
			c-12,11.667-26.667,38.667-24.334,48h24.334c0,0,2.333-16.667-13.333-8c0,0-4-6.001,6.333-17.667
			c10.333-11.666,35.999-35.999,37.333-42.666c0,0,19.334,8.332,32.334-3.334l18.666,23.334c0,0-4.666,1.334-8.333,11
			c-3.667,9.666-22.333,34.333-22.333,34.333h30c0,0,1-16.334-17-6.667c0,0,11.999-20.332,29.666-35.666c0,0-2.332-20.333-21.666-38
			l4.333-11.334L295.36,322.722z"/>
		<g>
			<g>
				<path style="fill:#F9B2A5;" d="M227.193,211.555c-9.5,12.25-6.5,20.75-6.5,20.75l0.91,4.53l0.59,2.97l-10.25,3
					c-15.01,0.08-22.93-3.29-26.38-7.83c-1.02-1.34-1.65-2.8-1.94-4.29c-1.89-9.41,9.14-20.55,16.07-18.63
					c0.68,0.19,1.33,0.36,1.95,0.51c9.93,2.44,11.09-0.1,15.8-5.51C222.443,201.305,236.693,199.305,227.193,211.555z"/>
				<path style="fill:#E0978D;" d="M222.193,239.805l-10.25,3c-15.01,0.08-22.93-3.29-26.38-7.83c-1.73-1.09-2.69-2.86-3.12-4.96
					c0.38,0.22,0.77,0.45,1.18,0.67c2.92,1.66,6.62,3.47,10.82,4.93c7.84,2.73,17.45,4.23,27.16,1.22L222.193,239.805z"/>
				<g>
					<path style="fill:#925656;" d="M210.443,214.055c-0.054,1.603-0.124,3.135-0.122,4.642c0.003,1.504,0.111,2.976,0.407,4.353
						c0.297,1.38,0.835,2.635,1.746,3.655c0.914,1.024,2.232,1.735,3.719,2.349c-1.577,0.214-3.343-0.108-4.758-1.185
						c-1.415-1.063-2.326-2.734-2.659-4.389c-0.361-1.666-0.3-3.342-0.003-4.929C209.073,216.965,209.594,215.428,210.443,214.055z"
						/>
				</g>
			</g>
			<g>
				<path style="fill:#F9B2A5;" d="M204.163,231.065c-1.39,1.49-2.8,2.16-2.8,2.16c-2.62,1.15-4.92,1.93-6.92,2.39
					c-4.1,0.95-6.96,0.57-8.88-0.64c-1.73-1.09-2.69-2.86-3.12-4.96c-0.18-0.87-0.27-1.79-0.28-2.74
					c-0.07-4.34,1.44-9.31,3.03-12.55c3.63-7.4,10.28-9.62,16.45-2.16c0.92,1.11,1.83,2.43,2.72,3.99
					C208.603,224.005,206.423,228.625,204.163,231.065z"/>
				<path style="fill:#E0978D;" d="M204.163,231.065c-1.39,1.49-2.8,2.16-2.8,2.16c-2.62,1.15-4.92,1.93-6.92,2.39
					c-4.1,0.95-6.96,0.57-8.88-0.64c-1.73-1.09-2.69-2.86-3.12-4.96c-0.18-0.87-0.27-1.79-0.28-2.74
					C185.323,230.705,192.223,235.445,204.163,231.065z"/>
				<g>
					<path style="fill:#925656;" d="M203.36,229.555c-1.305,0.33-2.597,0.462-3.884,0.526c-1.287,0.063-2.57,0.057-3.848-0.028
						c-1.278-0.078-2.551-0.241-3.819-0.469c-1.268-0.229-2.532-0.53-3.783-1.029c1.305-0.332,2.597-0.466,3.884-0.529
						c1.287-0.061,2.57-0.058,3.848,0.031c1.278,0.082,2.551,0.243,3.819,0.472C200.846,228.76,202.109,229.059,203.36,229.555z"/>
				</g>
				<g>
					<path style="fill:#925656;" d="M204.86,222.055c-1.242-0.204-2.383-0.591-3.501-1.021c-1.112-0.441-2.186-0.95-3.229-1.519
						c-1.042-0.568-2.051-1.198-3.023-1.896c-0.966-0.708-1.907-1.461-2.748-2.398c1.243,0.202,2.385,0.588,3.502,1.018
						c1.112,0.441,2.187,0.95,3.227,1.521c1.041,0.57,2.05,1.2,3.021,1.898C203.076,220.369,204.018,221.12,204.86,222.055z"/>
				</g>
				<g>
					<path style="fill:#925656;" d="M201.643,212.565c1.245,1.164,2.306,2.522,3.253,3.953c0.946,1.439,1.737,3.014,2.242,4.72
						c0.537,1.696,0.665,3.564,0.359,5.394c-0.34,1.829-1.222,3.552-2.445,4.934c-1.205,1.322-2.645,2.508-4.382,3.231
						c-1.681,0.624-3.305,1.096-5.039,1.389c-1.746,0.281-3.428,0.382-5.176,0.32c-1.707-0.097-3.554-0.427-4.892-1.532
						c1.561,0.702,3.239,0.709,4.871,0.545c1.625-0.161,3.305-0.482,4.867-0.863c1.559-0.44,3.178-0.951,4.621-1.601
						c1.371-0.621,2.599-1.634,3.637-2.819c2.121-2.253,2.748-5.498,2.07-8.622c-0.331-1.563-0.871-3.124-1.587-4.62
						C203.357,215.473,202.545,214.006,201.643,212.565z"/>
				</g>
			</g>
		</g>
		<g>
			<g>
				<g>
					<g>
						<path style="fill:#F3BA46;" d="M358.783,326.945c0.08,2.23,0.01,4-0.26,4.941c-1.33,4.67-38.66,27.34-64.83-10.33
							c0,0,5.33-12.5,5-20.33c-0.33-7.84-6-26.67-14-31.17c-5.02-2.82-33.29-12.39-53.68-19.14c-12.14-4.01-21.49-7.03-21.49-7.03
							s1.63-0.75,3.76-3.16c2.12-2.39,4.74-6.43,6.74-13c0,0,6.41,2.67,15.53,5.71c16.43,5.48,41.65,12.14,53.97,6.45
							c0,0,10.67,5.67,19.67,3.17l11.5,7.67l9.83,10.33l1.5-13.33c0,0,12.5,6.33,21.34,4.83l14.5,41l-11.67,8.67
							C356.193,302.225,358.523,318.155,358.783,326.945z"/>
						<path style="fill:#D8A03D;" d="M358.523,331.885c-1.33,4.67-38.66,27.34-64.83-10.33c0,0,5.33-12.5,5-20.33
							c-0.33-7.84-6-26.67-14-31.17c-5.02-2.82-33.29-12.39-53.68-19.14c-12.14-4.01-21.49-7.03-21.49-7.03s1.63-0.75,3.76-3.16
							c13.63,2.9,80.46,18.17,85.24,40.16c5.34,24.5-1.66,51.5,23.34,55c16.49,2.309,29.78-4.22,36.92-8.941
							C358.863,329.175,358.793,330.945,358.523,331.885z"/>
					</g>
					<path style="fill:#F3BA46;" d="M356.318,303.18c-1.5-19-8.458-36.291-8.458-36.291c0.333,0.333,11.166,13.167,14.833,35
						L356.318,303.18z"/>
				</g>
				<g>
					<path style="fill:#C8334C;" d="M234.203,245.805c-0.9,2.01-2.05,3.72-3.19,5.11c-12.14-4.01-21.49-7.03-21.49-7.03
						s0.07-0.03,0.21-0.11c0.06-0.04,0.14-0.08,0.23-0.14c0.12-0.07,0.25-0.15,0.4-0.26c0.23-0.15,0.49-0.35,0.79-0.59
						c0.6-0.49,1.33-1.16,2.13-2.06c2.12-2.39,4.74-6.43,6.74-13c0,0,6.41,2.67,15.53,5.71
						C236.563,238.305,235.723,242.465,234.203,245.805z"/>
					<path style="fill:#9A4253;" d="M234.203,245.805c-0.9,2.01-2.05,3.72-3.19,5.11c-12.14-4.01-21.49-7.03-21.49-7.03
						s0.07-0.03,0.21-0.11c0.06-0.04,0.14-0.08,0.23-0.14c0.12-0.07,0.25-0.16,0.4-0.26c0.23-0.15,0.49-0.35,0.79-0.59
						c0.6-0.49,1.33-1.16,2.13-2.06C217.033,241.525,224.803,243.255,234.203,245.805z"/>
				</g>
			</g>
			<g>
				<g>
					<path style="fill:#C28D39;" d="M290.86,244.722c1.191,1.803,2.016,3.813,2.645,5.875c0.633,2.067,0.996,4.219,1.135,6.398
						c0.069,2.183-0.115,4.394-0.691,6.518c-0.603,2.117-1.652,4.109-3.088,5.708c0.724-2.041,1.27-4.004,1.561-6.029
						c0.23-2.03,0.318-4.059,0.222-6.103c-0.093-2.045-0.351-4.089-0.654-6.146C291.663,248.889,291.281,246.83,290.86,244.722z"/>
				</g>
				<g>
					<path style="fill:#C28D39;" d="M352.526,255.722c0.542,1.237,0.81,2.538,0.96,3.84c0.146,1.305,0.164,2.624,0.043,3.935
						c-0.109,1.312-0.399,2.613-0.807,3.873c-0.415,1.257-1.019,2.471-1.862,3.518c0.066-1.352,0.22-2.594,0.336-3.847l0.342-3.73
						c0.111-1.243,0.247-2.488,0.393-3.748C352.075,258.302,352.244,257.037,352.526,255.722z"/>
				</g>
				<g>
					<path style="fill:#C28D39;" d="M347.86,266.889c1.513,2.758,2.712,5.665,3.764,8.615c1.068,2.949,1.92,5.969,2.663,9.016
						c0.36,1.526,0.665,3.066,0.966,4.605c0.231,1.553,0.54,3.091,0.679,4.658c0.396,3.111,0.513,6.263,0.386,9.398
						c-0.703-3.067-1.247-6.116-1.926-9.144c-0.658-3.027-1.31-6.05-2.05-9.055C350.941,278.951,349.348,272.98,347.86,266.889z"/>
				</g>
			</g>
		</g>
		<g>
			<path style="fill:#F9B2A5;" d="M326.026,264.888c-0.933,1.045,2.496-2.897,1.75-5.666c-0.961-3.567-6.06-6.426-7-7.167
				c-4.55-3.585-8.333-4-8.333-4l-0.21-7.06l-0.16-5.32l18.24-1.24l0.229,9.12l0.03,1.12
				C330.573,244.675,332.943,257.138,326.026,264.888z"/>
			<path style="fill:#C4817A;" d="M330.543,243.555c-8.199,3.03-14.54,0.2-18.31-2.56l-0.16-5.32l18.24-1.24L330.543,243.555z"/>
		</g>
		<path style="fill:#C8334C;" d="M311.818,240.055c0,0,4.375,7.125,9.625,9.75s8.25,11.5,8.25,11.5s-2.75-18.5,0.75-19.125
			s13.375,9.25,9.75,18.625c0,0-4.625-9.5-7.375-10.375s-1.5,16.375-1.5,16.375s-7.375-12.875-10.375-12.875s-2.625,10.5-2.625,10.5
			s-9.5-8.875-11.375-12.875S311.818,240.055,311.818,240.055z"/>
		<g>
			<g>
				<path style="fill:#5FAB4E;" d="M327.443,260.725l-0.66,3.54l-0.51,2.71c0,0-0.1-0.07-0.29-0.189c0-0.011-0.01-0.011-0.01-0.011
					c-1.03-0.689-4.53-3.08-7.62-5.529c0.1-2.091,0.38-4.7,1.14-6.171c1.811,1.801,5.061,4.75,7.59,5.551
					C327.203,260.666,327.323,260.695,327.443,260.725z"/>
				<path style="fill:#5FAB4E;" d="M338.603,257.795c-0.42,2.89-1.41,5.3-1.41,5.3l-4.79-4.5c1.1-1.25,1.48-5.14,1.61-7.38
					C335.563,252.626,337.353,255.545,338.603,257.795z"/>
			</g>
			<path style="fill:#5FAB4E;" d="M336.193,320.885c-2.75,6.26-11.93,11.36-17.87,13.979c-3.09,1.351-5.3,2.03-5.3,1.86
				c0-0.5,1-19,1-19c13.7-11.65,17.15-35.45,17.95-43.56c0.17-1.761,0.22-2.78,0.22-2.78l0.95-0.18l3.55-0.65
				c0,0,0.17,1.89,0.4,4.94C337.913,286.655,339.463,313.425,336.193,320.885z"/>
			<path style="fill:#71B853;" d="M337.094,275.496c-0.53,0.39-1.11,0.59-1.73,0.56c-0.32-0.01-0.66-0.1-1.01-0.26
				c-0.75-0.3-1.561-0.88-2.38-1.63c-2.21-2.021-4.52-5.2-5.99-7.38c0-0.011-0.01-0.011-0.01-0.011c-0.94-1.399-1.53-2.39-1.53-2.39
				l-0.25-0.5c0,0,0.3-0.42,0.83-1.04c0.5-0.61,1.21-1.41,2.06-2.22c1.681-1.601,3.88-3.221,6-3.34
				c1.471-0.091,2.91,0.56,4.11,2.439c0.26,0.41,0.5,0.83,0.71,1.25C340.973,266.885,339.773,273.565,337.094,275.496z"/>
			<path style="fill:#469646;" d="M319.073,318.675c0,0-4.02,10.21-0.75,16.19c-3.09,1.351-5.3,2.03-5.3,1.86c0-0.5,1-19,1-19
				c13.7-11.65,17.15-35.45,17.95-43.56c-2.21-2.021-4.52-5.2-5.99-7.38c0-0.011-0.01-0.011-0.01-0.011
				c-1.03-0.689-4.53-3.08-7.62-5.529c0.04-0.931,0.12-1.98,0.27-2.971c1.59,1.04,3.98,2.67,6.4,4.57c0.59,0.46,1.18,0.93,1.76,1.42
				c2.61,2.2,5.061,4.65,6.36,6.94c0.359,0.63,0.64,1.25,0.8,1.85c0.2,0.71,0.34,1.64,0.41,2.74
				C334.963,285.095,330.913,306.836,319.073,318.675z"/>
		</g>
		<g>
			<path style="fill:#F9B2A5;" d="M316.443,390.805l0.18,11.35c-0.609,1.03-0.93,1.57-0.93,1.57l-10.59,10.021l-2.03,1.92
				l-6.05,5.72c0,0,0.77-5.061,1.63-10.66c1.021-6.68,2.19-14.13,2.37-14.67c0.01-0.04,0.17-0.32,0.45-0.82l6.97-4.43l-0.17,0.95
				l-1.33,7.55L316.443,390.805z"/>
			<path style="fill:#E0978D;" d="M308.193,390.805l-5.12,24.86l-6.05,5.72c0,0,0.77-5.061,1.63-10.66
				c1.021-6.68,2.19-14.13,2.37-14.67c0.01-0.04,0.17-0.32,0.45-0.82c0.79-1.38,2.569-4.449,5.12-8.81
				C307.513,388.916,308.193,390.805,308.193,390.805z"/>
			<path style="fill:#6F4A4A;" d="M305.103,413.746l-8.08,7.64c0,0,0.77-5.061,1.63-10.66L305.103,413.746z"/>
			<path style="fill:#C8334C;" d="M410.693,242.725c-0.56,1.08-1.92,3.5-3.93,6.99c-1.74,3.02-3.96,6.85-6.56,11.3
				c-23.1,39.53-75.91,128.26-83.58,141.14l-0.18-11.35l-9.5,8.5l1.33-7.55l0.17-0.95l-6.97,4.43
				c5.47-9.59,58.779-100.319,82.85-141.279c2.73-4.63,5.08-8.641,6.94-11.811c3.02-5.13,4.76-8.09,4.76-8.09s6.34-10,11.67-8.33
				c0.08,0.03,0.17,0.05,0.25,0.08C413.123,227.525,416.273,231.905,410.693,242.725z"/>
			<path style="fill:#9A4253;" d="M308.273,391.755l0.17-0.95l-6.97,4.43c5.47-9.59,58.779-100.319,82.85-141.279
				c2.73-4.63,5.08-8.641,6.94-11.811c3.02-5.13,4.76-8.09,4.76-8.09s6.34-10,11.67-8.33c0.08,0.03,0.17,0.05,0.25,0.08
				L308.273,391.755z"/>
			<path style="fill:#B8C8C7;" d="M410.693,242.725c-0.56,1.08-1.92,3.5-3.93,6.99c-1.74,3.02-3.96,6.85-6.56,11.3
				c-2.69-3.229-6.47-5-9.819-5.97c-2.431-0.69-4.641-0.971-6.06-1.09c2.73-4.63,5.08-8.641,6.94-11.811
				c3.02-5.13,4.76-8.09,4.76-8.09s6.34-10,11.67-8.33c0.08,0.03,0.17,0.05,0.25,0.08
				C413.123,227.525,416.273,231.905,410.693,242.725z"/>
			<path style="fill:#99A4A4;" d="M407.943,225.805l-17.56,29.24c-2.431-0.69-4.641-0.971-6.06-1.09
				c2.73-4.63,5.08-8.641,6.94-11.811c3.02-5.13,4.76-8.09,4.76-8.09s6.34-10,11.67-8.33
				C407.773,225.755,407.863,225.775,407.943,225.805z"/>
			<path style="fill:#DA6D7C;" d="M410.693,242.725c-0.56,1.08-1.92,3.5-3.93,6.99c-2.87-2.94-6.391-4.8-9.601-5.97
				c-2.22-0.82-4.29-1.31-5.899-1.6c3.02-5.13,4.76-8.09,4.76-8.09s6.34-10,11.67-8.33c0.08,0.03,0.17,0.05,0.25,0.08
				C413.123,227.525,416.273,231.905,410.693,242.725z"/>
			<path style="fill:#AE525F;" d="M407.943,225.805l-10.78,17.94c-2.22-0.82-4.29-1.31-5.899-1.6c3.02-5.13,4.76-8.09,4.76-8.09
				s6.34-10,11.67-8.33C407.773,225.755,407.863,225.775,407.943,225.805z"/>
		</g>
		<g>
			<path style="fill:#F9B2A5;" d="M381.363,294.055c-0.84,6.08-1.55,10.25-2.84,13.33c-0.37,0.88-0.79,2.07-1.38,3.309
				c-1.5,3.141-4.07,6.58-9.45,5.86c-6.64-0.89-13.41-15.23-11.06-21.16c0.3-0.77,0.76-1.399,1.39-1.84
				C363.523,289.725,382.384,286.575,381.363,294.055z"/>
			<path style="fill:#E0978D;" d="M377.143,310.695c-1.5,3.141-4.07,6.58-9.45,5.86c-6.64-0.89-13.41-15.23-11.06-21.16
				c0.31,0.82,0.68,1.74,1.14,2.72C360.623,304.286,366.523,312.565,377.143,310.695z"/>
			<g>
				<g>
					<path style="fill:#925656;" d="M358.526,294.639c1.454-0.186,2.878-0.178,4.29-0.101c1.412,0.078,2.813,0.223,4.202,0.447
						c1.39,0.217,2.766,0.518,4.132,0.883c1.366,0.367,2.72,0.804,4.043,1.437c-1.455,0.189-2.878,0.181-4.29,0.104
						c-1.412-0.079-2.813-0.223-4.201-0.45c-1.389-0.221-2.766-0.52-4.132-0.886C361.204,295.706,359.85,295.27,358.526,294.639z"/>
				</g>
				<g>
					<path style="fill:#925656;" d="M357.443,297.806c1.209,0.583,2.283,1.308,3.308,2.083c1.025,0.776,2.002,1.602,2.924,2.485
						c0.927,0.878,1.796,1.818,2.619,2.804c0.822,0.988,1.596,2.027,2.232,3.21c-1.211-0.581-2.285-1.305-3.31-2.081
						c-1.024-0.777-2.002-1.601-2.922-2.487c-0.925-0.881-1.795-1.819-2.617-2.807C358.855,300.026,358.081,298.987,357.443,297.806
						z"/>
				</g>
			</g>
		</g>
		<g>
			<path style="fill:#F9B2A5;" d="M307.943,229.055c-20.41,9.67-30.29-0.78-32.67-12.8c-0.39-1.97-0.58-3.98-0.58-5.95
				c0-14,20.5-10,20.5-10l11.39,25.69L307.943,229.055z"/>
			<path style="fill:#E0978D;" d="M307.943,229.055c-20.41,9.67-30.29-0.78-32.67-12.8c4.189,6.24,13.82,15.78,31.31,9.74
				L307.943,229.055z"/>
			<path style="fill:#E0978D;" d="M297.161,214.162c2.271,4.422,1.589,9.302-1.523,10.899c-3.11,1.598-7.474-0.69-9.744-5.112
				c-2.272-4.422-1.59-9.302,1.521-10.9C290.526,207.452,294.889,209.74,297.161,214.162z"/>
			<g>
				<path style="fill:#925656;" d="M280.193,213.889c0.616-1.922,1.813-3.735,3.587-4.954c1.765-1.235,4.179-1.571,6.264-1.041
					c2.106,0.438,4.085,1.519,5.665,2.989c1.582,1.502,2.776,3.254,3.599,5.356l0.11,0.281l-0.097,0.307
					c-0.341,1.083-0.764,2.033-1.34,2.99c-0.584,0.928-1.307,1.878-2.451,2.488c-0.567,0.296-1.244,0.468-1.905,0.444
					c-0.662-0.019-1.29-0.207-1.816-0.483c-1.085-0.532-1.856-1.333-2.55-2.139c-0.682-0.819-1.287-1.657-1.793-2.613
					c-0.46-0.946-0.942-2.061-0.625-3.306c0.173-0.606,0.603-1.119,1.091-1.411c0.487-0.304,1.008-0.473,1.526-0.569
					c1.036-0.191,2.068-0.156,3.069-0.006c-1.007,0.06-2.01,0.222-2.924,0.542c-0.901,0.317-1.734,0.895-1.806,1.674
					c-0.116,0.767,0.299,1.645,0.804,2.419c0.523,0.775,1.146,1.547,1.814,2.221c0.668,0.662,1.393,1.281,2.143,1.604
					c0.758,0.348,1.449,0.321,2.075-0.044c1.296-0.755,2.245-2.661,2.766-4.354l0.014,0.588c-0.611-1.658-1.707-3.333-3.012-4.628
					c-1.302-1.343-2.946-2.291-4.741-2.844c-0.446-0.167-0.9-0.197-1.354-0.308c-0.227-0.024-0.455-0.026-0.684-0.042
					c-0.23-0.021-0.459-0.032-0.685,0c-0.921,0.015-1.819,0.303-2.657,0.725C282.584,210.622,281.203,212.153,280.193,213.889z"/>
			</g>
		</g>
		<g>
			<path style="fill:#F3BA46;" d="M373.183,195.245c-1.721,7.27-3.49,12.64-3.49,12.64l-27.33-53.16c0,0,3.83-0.32,8.91-0.11
				c9.49,0.4,23.35,2.67,24.75,12.44C377.203,175.215,375.223,186.585,373.183,195.245z"/>
			<path style="fill:#D8A03D;" d="M373.183,195.245c-1.721,7.27-3.49,12.64-3.49,12.64l-27.33-53.16c0,0,3.83-0.32,8.91-0.11
				c1.02,1.55,1.9,3.81,1.75,6.94c0,0,13.17,1.33,14.34,16.83C368.153,188.965,370.273,193.105,373.183,195.245z"/>
		</g>
		<g>
			<g>
				<path style="fill:#F9B2A5;" d="M364.563,231.335c-0.01,0-0.01,0-0.01,0c-2.08,1.41-4.471,2.62-7.19,3.55
					c-19.2,6.59-50.84,10.84-57.5-11.83c-2-6.78-3.1-13.47-3.65-19.51c-0.27-2.96-0.42-5.77-0.479-8.35
					c-0.24-9.81,0.79-16.47,0.79-16.47l15.17-12.67c0,0,30.82-10.86,44.06-0.97c1.431,1.07,2.65,2.38,3.61,3.97
					c9.83,16.33,3.5,24.17,11.83,27.67C378.533,199.805,379.924,220.975,364.563,231.335z"/>
				<path style="fill:#E0978D;" d="M317.193,235.305c-13.386-3.149-16.385-24.58-17.056-33.554
					c8.935-4.225,23.374-12.047,26.436-19.696c0,0,3.12-7.38,2.12-12.38c0,0,12.64-8.43,27.06-4.59
					c-13.239-9.89-44.06,0.97-44.06,0.97l-15.17,12.67c0,0-1.64,10.64-0.311,24.82c0.551,6.04,1.65,12.73,3.65,19.51
					c6.66,22.67,38.3,18.42,57.5,11.83c2.72-0.93,5.11-2.14,7.19-3.55C347.263,238.035,331.683,238.715,317.193,235.305z"/>
			</g>
			<g>
				<g>
					<path style="fill:#7D4F4F;" d="M315.526,196.889c-0.274-2.794-0.133-5.625,0.476-8.423c0.299-1.402,0.767-2.79,1.523-4.124
						c0.383-0.663,0.87-1.302,1.524-1.841c0.644-0.538,1.49-0.946,2.379-1.049c0.875-0.096,1.787,0.084,2.457,0.361
						c0.735,0.22,1.408,0.581,2.072,0.946c1.274,0.819,2.379,1.839,3.262,3.001c1.783,2.31,2.878,5.022,3.308,7.794
						c-1.217-2.511-2.663-4.867-4.491-6.777c-0.929-0.932-1.914-1.783-3.031-2.382c-0.572-0.262-1.121-0.571-1.728-0.725
						c-0.617-0.239-1.114-0.283-1.615-0.233c-0.978,0.073-1.863,0.846-2.531,1.9c-0.701,1.031-1.182,2.283-1.629,3.546
						C316.65,191.441,316.076,194.147,315.526,196.889z"/>
				</g>
				<g>
					<path style="fill:#7D4F4F;" d="M350.193,190.555c-0.15-2.177,0.026-4.353,0.486-6.507c0.219-1.084,0.563-2.147,1.043-3.212
						c0.242-0.532,0.567-1.049,0.987-1.55c0.421-0.487,1.004-0.997,1.829-1.2c0.2-0.049,0.415-0.052,0.622-0.066
						c0.2,0.017,0.414,0.037,0.601,0.077c0.327,0.111,0.671,0.215,0.975,0.359c0.279,0.172,0.573,0.338,0.831,0.529
						c0.234,0.207,0.475,0.409,0.694,0.628c0.811,0.908,1.402,1.89,1.857,2.916c0.92,2.038,1.43,4.182,1.576,6.358
						c-0.946-1.954-1.856-3.881-2.951-5.62c-0.566-0.849-1.13-1.692-1.822-2.316c-0.18-0.136-0.347-0.28-0.516-0.425
						c-0.176-0.119-0.358-0.205-0.53-0.317c-0.18-0.074-0.359-0.109-0.533-0.18l-0.194-0.02c-0.058,0.019-0.114,0.011-0.173,0.027
						c-0.475,0.064-1.128,0.823-1.573,1.664c-0.49,0.843-0.853,1.81-1.228,2.779C351.461,186.441,350.863,188.487,350.193,190.555z"
						/>
				</g>
				<path style="fill:#E0978D;" d="M355.193,203.055l-12.25,3.75c-0.95-2.07-1.03-5.12,4.75-7.25c3.28-1.21,5.69-1.3,7.45-0.9
					C355.503,200.155,355.563,201.635,355.193,203.055z"/>
				<g>
					<path style="fill:#925656;" d="M342.693,206.885c2.001-0.901,4.034-1.702,6.078-2.47c2.041-0.777,4.098-1.504,6.164-2.202
						l-0.595,0.62c0.234-1.004,0.201-2.053,0.034-3.098c-0.074-0.525-0.227-1.042-0.406-1.554l-0.248-0.771l-0.337-0.751
						c-0.87-2.022-2.148-3.899-3.5-5.725c-2.764-3.63-6.021-6.932-9.361-10.209c2.025,1.186,3.936,2.568,5.736,4.085
						c1.803,1.514,3.511,3.16,5.042,4.987c1.546,1.811,2.905,3.823,3.909,6.068c0.12,0.284,0.248,0.562,0.359,0.85l0.274,0.896
						c0.192,0.592,0.357,1.198,0.436,1.831c0.189,1.253,0.122,2.581-0.234,3.835l-0.141,0.495l-0.454,0.125
						c-2.101,0.577-4.211,1.126-6.337,1.625C346.992,206.032,344.855,206.497,342.693,206.885z"/>
				</g>
				<g>
					<path style="fill:#AE525F;" d="M356.863,208.225c0,0-0.99,6.27-3.76,12.09c-1.601,3.39-3.811,6.62-6.771,8.39
						c-0.569,0.34-1.18,0.63-1.81,0.85c-4.73,1.65-11.01-3.32-16.15-8.74c-0.79-0.85-1.56-1.7-2.29-2.54
						c-3.89-4.48-6.689-8.6-6.88-8.88C319.683,209.675,334.884,218.555,356.863,208.225z"/>
					<path style="fill:#973945;" d="M356.863,208.225c0,0-0.99,6.27-3.76,12.09c-18.66-10.48-23.57-4.74-24.73,0.5
						c-0.79-0.85-1.56-1.7-2.29-2.54c-3.89-4.48-6.689-8.6-6.88-8.88C319.683,209.675,334.884,218.555,356.863,208.225z"/>
					<path style="fill:#DA6D7C;" d="M346.333,228.705c-0.569,0.34-1.18,0.63-1.81,0.85c-5.46,1.91-13-5.03-18.44-11.28
						c3.96-0.73,10.24-1.06,14.61,2.78C344.213,224.145,345.693,226.795,346.333,228.705z"/>
				</g>
			</g>
		</g>
		<g>
			<path style="fill:#D8A03D;" d="M318.693,173.055c0,0,15.666-13.333,30.833-9.667l-8-16.167l-7.333-4.667l-8,1.333l-7,10.167
				L318.693,173.055z"/>
			<path style="fill:#F3BA46;" d="M351.174,168.495c-0.5-1.15-8.601-19.74-17.48-23.77c-7.26-3.3-12,29.84-21.11,47.6
				c-2.39,4.68-5.09,8.3-8.22,9.9c-15,7.66-51.34,6-51.34,6c12.5-9.17,8.34-26.5,15.5-36.84c1.56-2.25,4.99-4.94,9.54-7.78
				c16.37-10.23,47.13-22.42,56.13-22.55C345.384,140.885,350.893,167.075,351.174,168.495z"/>
			<path style="fill:#D8A03D;" d="M312.583,192.325c-2.39,4.68-5.09,8.3-8.22,9.9c-15,7.66-51.34,6-51.34,6
				c12.5-9.17,8.34-26.5,15.5-36.84c1.56-2.25,4.99-4.94,9.54-7.78c-2.22,9.1-8.03,30.88-14.04,37.28
				C264.023,200.885,297.123,199.965,312.583,192.325z"/>
		</g>
		<g>
			<g>
				<path style="fill:#7D4F4F;" d="M312.86,180.555c0.184-1.75,0.677-3.436,1.391-5.052c0.342-0.818,0.797-1.589,1.306-2.354
					c0.535-0.749,1.152-1.484,2.064-2.051c0.456-0.273,0.997-0.501,1.61-0.562c0.309-0.02,0.617-0.005,0.92,0.059
					c0.271,0.062,0.482,0.135,0.722,0.214c0.912,0.349,1.747,0.833,2.436,1.455c1.389,1.221,2.38,2.77,2.884,4.458
					c-1.213-1.256-2.464-2.378-3.81-3.202c-0.684-0.389-1.365-0.735-2.079-0.905c-0.173-0.029-0.368-0.093-0.515-0.114
					c-0.118-0.017-0.236-0.012-0.355,0c-0.239,0.032-0.504,0.138-0.775,0.306c-1.115,0.709-2.131,2.096-3.045,3.445
					C314.693,177.634,313.82,179.09,312.86,180.555z"/>
			</g>
			<g>
				<path style="fill:#7D4F4F;" d="M361.694,177.055c-0.96-1.465-1.832-2.921-2.753-4.304c-0.914-1.349-1.93-2.735-3.045-3.445
					c-0.271-0.168-0.536-0.274-0.775-0.306c-0.118-0.012-0.236-0.017-0.355,0c-0.146,0.021-0.342,0.086-0.515,0.114
					c-0.715,0.17-1.396,0.517-2.079,0.905c-1.346,0.824-2.597,1.946-3.811,3.202c0.504-1.688,1.495-3.236,2.884-4.458
					c0.689-0.623,1.524-1.106,2.436-1.455c0.24-0.079,0.451-0.152,0.722-0.214c0.303-0.064,0.611-0.079,0.92-0.059
					c0.613,0.061,1.154,0.29,1.61,0.562c0.911,0.566,1.529,1.302,2.064,2.051c0.509,0.765,0.965,1.536,1.306,2.354
					C361.017,173.619,361.511,175.305,361.694,177.055z"/>
			</g>
		</g>
	</g>
</g>
<g id="DESIGNED_BY_FREEPIK">
	<g>
		<g id="XMLID_319_">
			<g id="XMLID_338_">
				<path id="XMLID_346_" style="fill:#1D262D;" d="M260.104,465.465c-0.433,0.443-0.804,0.932-1.108,1.453l-0.465-0.241
					c-0.067-0.297-0.35-0.502-0.659-0.466c-0.331,0.039-0.567,0.339-0.529,0.67c0.039,0.331,0.339,0.567,0.67,0.528
					c0.065-0.007,0.127-0.025,0.184-0.052l0.451,0.234c-0.251,0.554-0.433,1.139-0.539,1.743l0.747,0.132
					c0.23-1.306,0.85-2.507,1.791-3.473L260.104,465.465z"/>
				<path id="XMLID_345_" style="fill:#1D262D;" d="M265.591,463.164c-0.171,0-0.341,0.006-0.51,0.017l-0.073-0.626
					c0.188-0.149,0.296-0.389,0.266-0.645c-0.046-0.393-0.402-0.674-0.795-0.628c-0.394,0.046-0.675,0.402-0.628,0.796
					c0.03,0.254,0.189,0.461,0.404,0.563l0.073,0.624c-0.714,0.116-1.402,0.332-2.06,0.646l0.327,0.685
					c0.934-0.447,1.941-0.674,2.995-0.674c0.497,0,0.993,0.053,1.476,0.158l0.16-0.741
					C266.692,463.222,266.142,463.164,265.591,463.164z"/>
				<path id="XMLID_344_" style="fill:#1D262D;" d="M272.194,465.711c0.331-0.04,0.566-0.341,0.525-0.672
					c-0.04-0.331-0.341-0.566-0.672-0.525c-0.31,0.038-0.535,0.304-0.53,0.608l-0.416,0.363c-0.418-0.43-0.89-0.813-1.407-1.14
					l-0.404,0.642c1.135,0.715,2.021,1.727,2.564,2.925l0.69-0.313c-0.251-0.554-0.567-1.071-0.942-1.545l0.402-0.351
					C272.065,465.715,272.128,465.719,272.194,465.711z"/>
				<path id="XMLID_343_" style="fill:#1D262D;" d="M265.044,473.372c-0.386,0.023-0.775,0.035-1.157,0.035
					c-0.88,0-1.733-0.061-2.479-0.18c-0.391-0.062-0.846-0.154-1.271-0.292c1.047,1.861,3.069,3.125,5.389,3.125
					c2.855,0,5.262-1.916,5.949-4.503c-0.682,0.449-1.505,0.825-2.458,1.122C267.838,473.047,266.463,473.287,265.044,473.372z"/>
				<path id="XMLID_339_" style="fill:#1D262D;" d="M265.591,464.68c-3.351,0-6.079,2.666-6.079,5.943
					c0,0.425,0.046,0.849,0.137,1.261c0.674,0.483,2.706,0.891,5.348,0.731c2.88-0.174,5.297-0.958,6.672-2.159
					c-0.005-0.194-0.021-0.39-0.045-0.581C271.244,466.914,268.65,464.68,265.591,464.68z M263.432,471.195
					c-1.02,0-1.85-0.83-1.85-1.85c0-1.021,0.83-1.851,1.85-1.851c1.02,0,1.85,0.83,1.85,1.851
					C265.282,470.365,264.452,471.195,263.432,471.195z M268.169,470.287c-0.75,0-1.36-0.61-1.36-1.36s0.61-1.36,1.36-1.36
					s1.36,0.61,1.36,1.36S268.919,470.287,268.169,470.287z"/>
			</g>
			<path id="XMLID_336_" style="fill:#1D262D;" d="M281.595,466.547c-0.295-0.116-0.806-0.31-1.383-0.238
				c-0.551,0.069-0.844,0.341-0.844,1.007v0.866h2.229v1.717h-2.229v5.455h-1.932v-5.455h-1.34v-1.717h1.34v-0.889
				c0-1.68,0.896-2.782,2.568-2.782c0.643,0,1.157,0.121,1.59,0.308V466.547z"/>
			<path id="XMLID_334_" style="fill:#1D262D;" d="M286.297,469.878c-0.177-0.029-0.357-0.046-0.526-0.046
				c-0.896,0-1.51,0.548-1.51,1.613v3.908h-1.932v-7.172h1.873v0.784c0.451-0.673,1.14-0.977,2.021-0.977
				c0.414,0,0.848,0.128,1.094,0.337L286.297,469.878z"/>
			<path id="XMLID_331_" style="fill:#1D262D;" d="M293.965,471.757c0,0.222-0.016,0.488-0.037,0.651h-5.085
				c0.207,1.036,0.933,1.487,1.843,1.487c0.622,0,1.295-0.252,1.813-0.689l1.133,1.243c-0.814,0.748-1.851,1.089-3.058,1.089
				c-2.198,0-3.723-1.496-3.723-3.753c0-2.258,1.48-3.797,3.627-3.797C292.543,467.99,293.958,469.522,293.965,471.757z
				 M288.85,471.091h3.176c-0.178-0.918-0.732-1.437-1.562-1.437C289.553,469.655,289.021,470.203,288.85,471.091z"/>
			<path id="XMLID_328_" style="fill:#1D262D;" d="M301.619,471.757c0,0.222-0.016,0.488-0.037,0.651h-5.085
				c0.207,1.036,0.933,1.487,1.843,1.487c0.622,0,1.295-0.252,1.814-0.689l1.133,1.243c-0.815,0.748-1.851,1.089-3.058,1.089
				c-2.198,0-3.723-1.496-3.723-3.753c0-2.258,1.48-3.797,3.627-3.797C300.197,467.99,301.611,469.522,301.619,471.757z
				 M296.503,471.091h3.176c-0.178-0.918-0.733-1.437-1.561-1.437C297.207,469.655,296.674,470.203,296.503,471.091z"/>
			<path id="XMLID_325_" style="fill:#1D262D;" d="M309.963,471.764c0,2.154-1.494,3.775-3.471,3.775
				c-0.962,0-1.644-0.378-2.109-0.933v3.708h-1.925v-10.133h1.888v0.792c0.466-0.585,1.154-0.984,2.139-0.984
				C308.469,467.99,309.963,469.611,309.963,471.764z M304.287,471.764c0,1.133,0.748,1.977,1.843,1.977
				c1.141,0,1.851-0.881,1.851-1.977c0-1.095-0.71-1.976-1.851-1.976C305.035,469.789,304.287,470.632,304.287,471.764z"/>
			<path id="XMLID_322_" style="fill:#1D262D;" d="M313.067,465.836c0,0.696-0.54,1.229-1.235,1.229
				c-0.696,0-1.229-0.533-1.229-1.229c0-0.695,0.532-1.243,1.229-1.243C312.527,464.592,313.067,465.14,313.067,465.836z
				 M312.808,475.354h-1.932v-7.172h1.932V475.354z"/>
			<path id="XMLID_320_" style="fill:#1D262D;" d="M316.032,470.736l2.702-2.554h2.368l-3.478,3.375l3.501,3.797h-2.376
				l-2.717-2.901v2.901H314.1v-10.658h1.932V470.736z"/>
		</g>
		<g>
			<path style="fill:#1D262D;" d="M184.412,475.29v-1.055c-0.527,0.718-1.391,1.23-2.387,1.23c-1.846,0-3.149-1.406-3.149-3.706
				c0-2.256,1.289-3.721,3.149-3.721c0.952,0,1.816,0.469,2.387,1.245v-3.765h1.099v9.771H184.412z M184.412,473.371v-3.208
				c-0.395-0.615-1.245-1.143-2.124-1.143c-1.42,0-2.27,1.172-2.27,2.739c0,1.567,0.85,2.725,2.27,2.725
				C183.167,474.484,184.017,473.986,184.412,473.371z"/>
			<path style="fill:#1D262D;" d="M186.932,471.745c0-2.051,1.465-3.706,3.486-3.706c2.139,0,3.398,1.67,3.398,3.794v0.278h-5.727
				c0.088,1.333,1.025,2.446,2.549,2.446c0.806,0,1.626-0.322,2.182-0.894l0.527,0.718c-0.703,0.703-1.655,1.084-2.812,1.084
				C188.44,475.465,186.932,473.957,186.932,471.745z M190.403,468.947c-1.509,0-2.256,1.274-2.314,2.358h4.644
				C192.718,470.25,192.015,468.947,190.403,468.947z"/>
			<path style="fill:#1D262D;" d="M194.607,474.352l0.571-0.791c0.469,0.542,1.362,1.011,2.329,1.011c1.084,0,1.67-0.513,1.67-1.216
				c0-1.714-4.38-0.659-4.38-3.281c0-1.099,0.952-2.036,2.636-2.036c1.202,0,2.051,0.454,2.623,1.025l-0.513,0.762
				c-0.424-0.513-1.201-0.894-2.109-0.894c-0.966,0-1.567,0.483-1.567,1.113c0,1.553,4.379,0.527,4.379,3.281
				c0,1.187-0.952,2.139-2.783,2.139C196.306,475.465,195.325,475.114,194.607,474.352z"/>
			<path style="fill:#1D262D;" d="M201.477,466.471c0-0.41,0.337-0.747,0.732-0.747c0.41,0,0.747,0.337,0.747,0.747
				c0,0.41-0.337,0.732-0.747,0.732C201.814,467.204,201.477,466.881,201.477,466.471z M201.667,475.29v-7.075h1.099v7.075H201.667z
				"/>
			<path style="fill:#1D262D;" d="M204.582,477.106l0.556-0.82c0.586,0.703,1.289,0.967,2.3,0.967c1.172,0,2.271-0.571,2.271-2.124
				v-1.011c-0.513,0.718-1.377,1.26-2.373,1.26c-1.846,0-3.149-1.377-3.149-3.662c0-2.271,1.289-3.677,3.149-3.677
				c0.952,0,1.802,0.469,2.373,1.245v-1.069h1.099v6.87c0,2.344-1.641,3.076-3.369,3.076
				C206.237,478.161,205.416,477.925,204.582,477.106z M209.708,473.253v-3.091c-0.381-0.615-1.23-1.143-2.109-1.143
				c-1.421,0-2.27,1.128-2.27,2.695c0,1.553,0.849,2.695,2.27,2.695C208.478,474.411,209.328,473.869,209.708,473.253z"/>
			<path style="fill:#1D262D;" d="M217.413,475.29v-4.629c0-1.245-0.63-1.641-1.582-1.641c-0.864,0-1.685,0.527-2.094,1.099v5.171
				h-1.099v-7.075h1.099v1.025c0.497-0.586,1.464-1.201,2.519-1.201c1.479,0,2.256,0.747,2.256,2.285v4.966H217.413z"/>
			<path style="fill:#1D262D;" d="M219.932,471.745c0-2.051,1.465-3.706,3.486-3.706c2.139,0,3.398,1.67,3.398,3.794v0.278h-5.727
				c0.088,1.333,1.025,2.446,2.548,2.446c0.806,0,1.626-0.322,2.183-0.894l0.527,0.718c-0.703,0.703-1.655,1.084-2.813,1.084
				C221.441,475.465,219.932,473.957,219.932,471.745z M223.404,468.947c-1.509,0-2.256,1.274-2.314,2.358h4.643
				C225.718,470.25,225.015,468.947,223.404,468.947z"/>
			<path style="fill:#1D262D;" d="M233.35,475.29v-1.055c-0.527,0.718-1.392,1.23-2.388,1.23c-1.845,0-3.149-1.406-3.149-3.706
				c0-2.256,1.289-3.721,3.149-3.721c0.952,0,1.817,0.469,2.388,1.245v-3.765h1.098v9.771H233.35z M233.35,473.371v-3.208
				c-0.396-0.615-1.245-1.143-2.124-1.143c-1.421,0-2.27,1.172-2.27,2.739c0,1.567,0.85,2.725,2.27,2.725
				C232.105,474.484,232.954,473.986,233.35,473.371z"/>
			<path style="fill:#1D262D;" d="M239.692,475.29v-9.771h1.099v3.765c0.571-0.776,1.421-1.245,2.388-1.245
				c1.845,0,3.149,1.465,3.149,3.721c0,2.3-1.304,3.706-3.149,3.706c-0.996,0-1.86-0.513-2.388-1.23v1.055H239.692z M242.9,474.484
				c1.436,0,2.285-1.157,2.285-2.725c0-1.567-0.85-2.739-2.285-2.739c-0.864,0-1.729,0.527-2.109,1.143v3.208
				C241.171,473.986,242.036,474.484,242.9,474.484z"/>
			<path style="fill:#1D262D;" d="M247.528,477.062c0.161,0.073,0.425,0.117,0.601,0.117c0.483,0,0.806-0.161,1.055-0.747
				l0.469-1.069l-2.959-7.148h1.187l2.358,5.801l2.343-5.801h1.201l-3.544,8.511c-0.425,1.024-1.143,1.421-2.08,1.436
				c-0.234,0-0.6-0.044-0.806-0.104L247.528,477.062z"/>
		</g>
	</g>
</g>
</svg>
